<?xml version="1.0" encoding="utf-8"?>
<!-- Generator: Adobe Illustrator 18.1.1, SVG Export Plug-In . SVG Version: 6.00 Build 0)  -->
<svg version="1.1" xmlns="http://www.w3.org/2000/svg" xmlns:xlink="http://www.w3.org/1999/xlink" x="0px" y="0px"
	 viewBox="0 0 403 790" enable-background="new 0 0 403 790" xml:space="preserve" preserveAspectRatio="none">
<g id="Warstwa_1">
	<g>
		<linearGradient id="SVGID_1_" gradientUnits="userSpaceOnUse" x1="-79.8263" y1="113.1737" x2="483.5972" y2="676.5972">
			<stop  offset="0.2" style="stop-color:#1E1E1E"/>
			<stop  offset="0.6" style="stop-color:#1E1E1E"/>
		</linearGradient>
		<path fill="url(#SVGID_1_)" d="M380,14C358.2,4.6,279.7,0,202,0S45.8,4.6,24,14C7.8,21,4,28.2,4,54v681c0,25.8,3.8,34,20,41
			c21.8,9.4,100.3,14,178,14s156.2-4.6,178-14c16.2-7,19-15.2,19-41V54C399,28.2,396.2,21,380,14z M382,704H22V64h360V704z"/>
	</g>
	<g>
		<path d="M202,6c86.3,0,156.9,5.4,175.6,13.5c7.2,3.1,10.6,5.8,12.5,10C392.5,34.6,393,43,393,54v681c0,24.6-2.3,29.9-15.4,35.5
			C358.9,778.6,288.3,784,202,784s-156.9-5.4-175.6-13.5C13.5,764.9,10,759.9,10,735V54c0-12.7,0.9-19.7,3.3-24.3
			c2.1-4.2,5.7-6.9,13.1-10.2C45.1,11.4,115.7,6,202,6 M202,0C124.3,0,45.8,4.6,24,14C7.8,21,4,28.2,4,54v681c0,25.8,3.8,34,20,41
			c21.8,9.4,100.3,14,178,14s156.2-4.6,178-14c16.2-7,19-15.2,19-41V54c0-25.8-2.8-33-19-40C358.2,4.6,279.7,0,202,0L202,0z"/>
	</g>
	<g>
		<g>
			<linearGradient id="SVGID_2_" gradientUnits="userSpaceOnUse" x1="201.5" y1="790" x2="201.5" y2="-2.182787e-11">
				<stop  offset="0" style="stop-color:#323232"/>
				<stop  offset="0.1" style="stop-color:#626262"/>
				<stop  offset="0.2782" style="stop-color:#282828"/>
				<stop  offset="0.5" style="stop-color:#282828"/>
				<stop  offset="0.7" style="stop-color:#282828"/>
				<stop  offset="0.95" style="stop-color:#828282"/>
				<stop  offset="1" style="stop-color:#505050"/>
			</linearGradient>
			<path fill="url(#SVGID_2_)" d="M202,4c86.5,0,157.4,5.5,176.4,13.7C392.5,23.7,395,29.2,395,54v681c0,25.4-2.6,31.3-16.6,37.3
				c-19,8.2-89.9,13.7-176.4,13.7s-157.4-5.5-176.4-13.7C12,766.5,8,760.8,8,735V54c0-13,1-20.3,3.5-25.2c2.3-4.6,6.3-7.7,14.1-11.1
				C44.6,9.5,115.5,4,202,4 M202,0C124.3,0,45.8,4.6,24,14C7.8,21,4,28.2,4,54v681c0,25.8,3.8,34,20,41c21.8,9.4,100.3,14,178,14
				s156.2-4.6,178-14c16.2-7,19-15.2,19-41V54c0-25.8-2.8-33-19-40C358.2,4.6,279.7,0,202,0L202,0z"/>
		</g>
	</g>
	<g>
		<g>
			<path d="M202,1c88.3,0,158,5.5,177.6,13.9C395.1,21.6,398,27.8,398,54v681c0,12.1-0.6,20.9-3.3,27.1c-2.5,5.7-6.9,9.4-15.1,13
				C360,783.5,290.3,789,202,789s-158-5.5-177.6-13.9C8.8,768.4,5,760.5,5,735V54c0-25.3,3.4-32.2,19.4-39.1C44,6.5,113.7,1,202,1
				 M202,0C124.3,0,45.8,4.6,24,14C7.8,21,4,28.2,4,54v681c0,25.8,3.8,34,20,41c21.8,9.4,100.3,14,178,14s156.2-4.6,178-14
				c16.2-7,19-15.2,19-41V54c0-25.8-2.8-33-19-40C358.2,4.6,279.7,0,202,0L202,0z"/>
		</g>
	</g>
	<g>
		<linearGradient id="SVGID_3_" gradientUnits="userSpaceOnUse" x1="194.9289" y1="45.0711" x2="209.0711" y2="30.9289">
			<stop  offset="0" style="stop-color:#0A0A0A"/>
			<stop  offset="0.8" style="stop-color:#3C3C3C"/>
		</linearGradient>
		<circle fill="url(#SVGID_3_)" cx="202" cy="38" r="10"/>
	</g>
	<g>
		<path d="M202,29c5,0,9,4,9,9s-4,9-9,9s-9-4-9-9S197,29,202,29 M202,28c-5.5,0-10,4.5-10,10s4.5,10,10,10s10-4.5,10-10
			S207.5,28,202,28L202,28z"/>
	</g>
	<g>
		<linearGradient id="SVGID_4_" gradientUnits="userSpaceOnUse" x1="64.7574" y1="42.2426" x2="73.2426" y2="33.7574">
			<stop  offset="0" style="stop-color:#B3B3B3"/>
			<stop  offset="0.7" style="stop-color:#2D2D2D"/>
		</linearGradient>
		<circle fill="url(#SVGID_4_)" cx="69" cy="38" r="6"/>
	</g>
	<g>
		<radialGradient id="SVGID_5_" cx="69" cy="38" r="5" gradientUnits="userSpaceOnUse">
			<stop  offset="0" style="stop-color:#3C3C3C"/>
			<stop  offset="0.65" style="stop-color:#3C3C3C"/>
			<stop  offset="0.85" style="stop-color:#3C3C3C"/>
			<stop  offset="0.9" style="stop-color:#505050"/>
			<stop  offset="1" style="stop-color:#000000"/>
		</radialGradient>
		<circle fill="url(#SVGID_5_)" cx="69" cy="38" r="5"/>
	</g>
	<g>
		<circle fill="#2D2D2D" cx="327" cy="38" r="4"/>
	</g>
	<g>
		<circle fill="#2D2D2D" cx="340" cy="38" r="3"/>
	</g>
	<linearGradient id="SVGID_6_" gradientUnits="userSpaceOnUse" x1="401" y1="101" x2="401" y2="187">
		<stop  offset="5.000000e-02" style="stop-color:#282828"/>
		<stop  offset="0.15" style="stop-color:#8C8C8C"/>
		<stop  offset="0.3" style="stop-color:#3C3C3C"/>
		<stop  offset="1" style="stop-color:#282828"/>
	</linearGradient>
	<rect x="399" y="101" fill="url(#SVGID_6_)" width="4" height="86"/>
	<linearGradient id="SVGID_7_" gradientUnits="userSpaceOnUse" x1="2" y1="153" x2="2" y2="278">
		<stop  offset="5.000000e-02" style="stop-color:#282828"/>
		<stop  offset="0.15" style="stop-color:#8C8C8C"/>
		<stop  offset="0.3" style="stop-color:#3C3C3C"/>
		<stop  offset="1" style="stop-color:#282828"/>
	</linearGradient>
	<rect y="153" fill="url(#SVGID_7_)" width="4" height="125"/>
	<g>
		<radialGradient id="SVGID_8_" cx="69" cy="38" r="3" gradientUnits="userSpaceOnUse">
			<stop  offset="0.85" style="stop-color:#29416B"/>
			<stop  offset="1" style="stop-color:#000000"/>
		</radialGradient>
		<circle fill="url(#SVGID_8_)" cx="69" cy="38" r="3"/>
	</g>
</g>
<g id="Layer_2">
</g>
</svg>
